<?xml version="1.0" standalone="no"?>
<!DOCTYPE svg PUBLIC "-//W3C//DTD SVG 20010904//EN"
 "http://www.w3.org/TR/2001/REC-SVG-20010904/DTD/svg10.dtd">
<svg version="1.0" xmlns="http://www.w3.org/2000/svg"
 width="1021.000000pt" height="1021.000000pt" viewBox="0 0 1021.000000 1021.000000"
 preserveAspectRatio="xMidYMid meet">
<metadata>
Created by potrace 1.14, written by Peter Selinger 2001-2017
</metadata>
<g transform="translate(0.000000,1021.000000) scale(0.100000,-0.100000)"
fill="#000000" stroke="none">
<path d="M4695 9948 c-165 -13 -439 -54 -624 -94 -1131 -243 -2145 -894 -2852
-1829 -555 -734 -883 -1606 -960 -2550 -15 -190 -6 -737 15 -915 135 -1105
588 -2060 1351 -2848 706 -730 1651 -1227 2656 -1396 318 -54 408 -61 824 -61
416 0 506 7 824 61 1757 297 3222 1554 3786 3249 124 372 200 744 235 1150 13
155 13 625 0 780 -55 646 -227 1256 -510 1810 -773 1513 -2267 2514 -3949
2645 -158 12 -638 11 -796 -2z"/>
</g>
</svg>
